<?xml version="1.0" encoding="UTF-8" standalone="no"?>
<svg
   height="667.98969"
   width="835"
   version="1.1"
   id="Capa_1"
   viewBox="0 0 522.02426 417.61296"
   xml:space="preserve"
   sodipodi:docname="map-icon.svg"
   inkscape:version="1.4 (e7c3feb1, 2024-10-09)"
   xmlns:inkscape="http://www.inkscape.org/namespaces/inkscape"
   xmlns:sodipodi="http://sodipodi.sourceforge.net/DTD/sodipodi-0.dtd"
   xmlns="http://www.w3.org/2000/svg"
   xmlns:svg="http://www.w3.org/2000/svg"><defs
   id="defs1" /><sodipodi:namedview
   id="namedview1"
   pagecolor="#ffffff"
   bordercolor="#000000"
   borderopacity="0.25"
   inkscape:showpageshadow="2"
   inkscape:pageopacity="0.0"
   inkscape:pagecheckerboard="0"
   inkscape:deskcolor="#d1d1d1"
   inkscape:zoom="0.52"
   inkscape:cx="328.84615"
   inkscape:cy="533.65385"
   inkscape:window-width="1472"
   inkscape:window-height="890"
   inkscape:window-x="1920"
   inkscape:window-y="162"
   inkscape:window-maximized="1"
   inkscape:current-layer="g1" />
<g
   id="g1"
   transform="translate(10.940628,-41.26668)">
	<path
   style="fill:#010002;stroke:#010002;stroke-width:21.8813;stroke-dasharray:none"
   d="m 494.705,109.571 -161.287,-56.9 c -0.244,-0.089 -0.496,-0.106 -0.74,-0.171 -0.341,-0.089 -0.667,-0.187 -1.008,-0.228 -0.325,-0.041 -0.642,-0.016 -0.959,-0.016 -0.317,0 -0.634,-0.016 -0.959,0.016 -0.341,0.041 -0.675,0.146 -1.008,0.228 -0.244,0.065 -0.504,0.081 -0.74,0.171 L 169.416,108.62 10.827,52.671 C 8.34,51.785 5.584,52.175 3.43,53.695 1.276,55.215 0,57.695 0,60.328 v 322.583 c 0,3.447 2.178,6.519 5.422,7.665 l 161.295,56.9 c 0.041,0.016 0.089,0.008 0.138,0.024 0.829,0.276 1.691,0.439 2.569,0.439 0.878,0 1.74,-0.163 2.569,-0.439 0.041,-0.016 0.089,-0.008 0.138,-0.024 l 158.597,-55.949 158.58,55.949 c 0.878,0.309 1.796,0.463 2.707,0.463 1.658,0 3.3,-0.512 4.69,-1.496 2.162,-1.528 3.438,-3.999 3.438,-6.633 V 117.237 c -0.016,-3.447 -2.195,-6.52 -5.438,-7.666 z M 16.249,71.822 161.287,122.983 v 305.35 L 16.249,377.164 Z M 177.544,122.983 322.582,71.822 V 377.164 L 177.544,428.333 Z M 483.87,428.333 338.84,377.164 V 71.822 l 145.03,51.161 z"
   id="path1" />
</g>
</svg>
