<?xml version="1.0" encoding="UTF-8"?>
<svg xmlns="http://www.w3.org/2000/svg" xmlns:xlink="http://www.w3.org/1999/xlink" width="132px" height="132px" viewBox="0 0 132 131" version="1.1">
<g id="surface1">
<path style=" stroke:none;fill-rule:nonzero;fill:rgb(0%,0%,0%);fill-opacity:1;" d="M 99.324219 130.992188 L 32.386719 130.992188 C 14.503906 130.992188 0 116.570312 0 98.777344 L 0 32.21875 C 0 14.429688 14.503906 0.0078125 32.386719 0.0078125 L 99.324219 0.0078125 C 117.210938 0.0078125 131.710938 14.429688 131.710938 32.21875 L 131.710938 98.777344 C 131.71875 116.570312 117.214844 130.992188 99.324219 130.992188 Z M 99.324219 130.992188 "/>
<path style=" stroke:none;fill-rule:nonzero;fill:rgb(14.509804%,95.686275%,93.333333%);fill-opacity:1;" d="M 54.730469 55.753906 L 54.730469 51.792969 C 53.351562 51.578125 51.953125 51.457031 50.554688 51.4375 C 37.011719 51.410156 25.027344 60.136719 20.957031 72.976562 C 16.890625 85.820312 21.691406 99.804688 32.804688 107.492188 C 21.144531 95.085938 21.808594 75.625 34.289062 64.027344 C 39.851562 58.867188 47.125 55.921875 54.730469 55.753906 Z M 54.730469 55.753906 "/>
<path style=" stroke:none;fill-rule:nonzero;fill:rgb(14.509804%,95.686275%,93.333333%);fill-opacity:1;" d="M 55.484375 100.585938 C 63.054688 100.578125 69.273438 94.648438 69.609375 87.125 L 69.609375 20.003906 L 81.941406 20.003906 C 81.6875 18.605469 81.566406 17.179688 81.582031 15.757812 L 64.71875 15.757812 L 64.71875 82.808594 C 64.4375 90.367188 58.199219 96.359375 50.59375 96.371094 C 48.320312 96.351562 46.082031 95.796875 44.066406 94.75 C 46.714844 98.398438 50.957031 100.570312 55.484375 100.585938 Z M 104.964844 42.777344 L 104.964844 39.046875 C 100.429688 39.046875 95.988281 37.714844 92.210938 35.21875 C 95.523438 39.050781 100 41.703125 104.964844 42.777344 Z M 104.964844 42.777344 "/>
<path style=" stroke:none;fill-rule:nonzero;fill:rgb(99.607843%,17.254902%,33.333333%);fill-opacity:1;" d="M 92.214844 35.222656 C 88.492188 31.007812 86.4375 25.585938 86.441406 19.972656 L 81.941406 19.972656 C 83.113281 26.246094 86.828125 31.761719 92.214844 35.222656 Z M 50.554688 68.214844 C 42.738281 68.253906 36.429688 74.589844 36.46875 82.363281 C 36.496094 87.566406 39.402344 92.328125 44.03125 94.75 C 39.457031 88.46875 40.867188 79.6875 47.183594 75.132812 C 49.597656 73.394531 52.503906 72.460938 55.484375 72.464844 C 56.898438 72.484375 58.308594 72.703125 59.660156 73.117188 L 59.660156 56.050781 C 58.28125 55.84375 56.882812 55.734375 55.484375 55.726562 L 54.730469 55.726562 L 54.730469 68.703125 C 53.371094 68.335938 51.964844 68.171875 50.554688 68.214844 Z M 50.554688 68.214844 "/>
<path style=" stroke:none;fill-rule:nonzero;fill:rgb(99.607843%,17.254902%,33.333333%);fill-opacity:1;" d="M 104.964844 42.777344 L 104.964844 55.753906 C 96.566406 55.738281 88.382812 53.09375 81.578125 48.195312 L 81.578125 82.289062 C 81.542969 99.300781 67.664062 113.074219 50.554688 113.074219 C 44.203125 113.085938 38 111.136719 32.808594 107.492188 C 44.453125 119.945312 64.039062 120.65625 76.5625 109.078125 C 82.863281 103.257812 86.441406 95.089844 86.441406 86.539062 L 86.441406 52.542969 C 93.269531 57.40625 101.460938 60.015625 109.863281 60 L 109.863281 43.300781 C 108.214844 43.289062 106.578125 43.121094 104.964844 42.777344 Z M 104.964844 42.777344 "/>
<path style=" stroke:none;fill-rule:nonzero;fill:rgb(100%,100%,100%);fill-opacity:1;" d="M 81.578125 82.292969 L 81.578125 48.199219 C 88.40625 53.066406 96.597656 55.675781 105 55.660156 L 105 42.683594 C 100.035156 41.640625 95.546875 39.019531 92.210938 35.222656 C 86.824219 31.757812 83.109375 26.242188 81.933594 19.972656 L 69.605469 19.972656 L 69.605469 87.125 C 69.285156 94.894531 62.695312 100.933594 54.882812 100.617188 C 50.550781 100.445312 46.539062 98.304688 43.996094 94.8125 C 37.078125 91.191406 34.421875 82.679688 38.0625 75.800781 C 40.5 71.195312 45.289062 68.304688 50.519531 68.28125 C 51.9375 68.292969 53.34375 68.511719 54.695312 68.929688 L 54.695312 55.757812 C 37.621094 56.046875 24.007812 70.242188 24.296875 87.222656 C 24.429688 94.914062 27.453125 102.277344 32.773438 107.859375 C 38.015625 111.378906 44.226562 113.203125 50.550781 113.082031 C 67.664062 113.078125 81.542969 99.304688 81.578125 82.292969 Z M 81.578125 82.292969 "/>
</g>
</svg>
