<?xml version="1.0" encoding="UTF-8" standalone="no"?><svg width="1073" height="385" viewBox="0 0 1073 385" fill="none" xmlns="http://www.w3.org/2000/svg">
<path d="M256.383 303L260.143 234.47L263.561 131.76L264.244 96.2129C264.358 86.7565 264.415 77.9268 264.415 69.7236C267.377 69.8376 269.941 69.8945 272.105 69.8945C274.384 69.8945 276.948 69.8376 279.796 69.7236L276.72 131.589L272.618 258.908L271.764 303C268.915 302.886 266.352 302.829 264.073 302.829C261.795 302.829 259.231 302.886 256.383 303ZM294.186 303L296.92 261.643L301.876 132.956L302.56 96.3838L302.73 69.7236L336.739 69.8945L375.704 69.7236C391.882 69.7236 403.674 71.8883 411.08 76.2178C418.486 80.4333 424.296 86.5286 428.512 94.5039C432.841 102.365 435.006 111.423 435.006 121.677C435.006 134.437 431.759 146.172 425.265 156.882C418.884 167.478 410.112 175.567 398.946 181.149C387.781 186.732 374.964 189.523 360.494 189.523C358.671 189.523 355.937 189.41 352.291 189.182L434.151 303C431.303 302.886 428.341 302.829 425.265 302.829C422.075 302.829 419.112 302.886 416.378 303L393.99 269.162L328.878 177.048C339.018 178.871 347.791 179.782 355.196 179.782C364.197 179.782 372.913 178.586 381.344 176.193C389.775 173.687 397.009 169.984 403.048 165.085C409.086 160.186 413.757 154.09 417.062 146.799C420.366 139.393 422.018 131.361 422.018 122.702C422.018 116.892 421.22 111.48 419.625 106.467C418.03 101.454 415.466 97.0674 411.935 93.3076C408.403 89.4339 404.757 86.6995 400.997 85.1045C397.351 83.5094 392.623 82.3701 386.812 81.6865C381.002 80.889 374.85 80.4902 368.355 80.4902L340.328 80.6611C334.176 80.6611 326.314 80.5472 316.744 80.3193C312.984 170.44 310.82 244.667 310.25 303C307.402 302.886 304.724 302.829 302.218 302.829C299.711 302.829 297.034 302.886 294.186 303ZM482.379 303L484.942 260.446L491.607 80.3193C463.466 80.3193 438.971 80.832 418.121 81.8574C418.691 77.1862 418.976 73.1416 418.976 69.7236C446.433 69.8376 474.745 69.8945 503.912 69.8945L552.618 69.7236H578.424C577.854 74.2809 577.569 78.3255 577.569 81.8574C563.784 80.832 542.82 80.3193 514.679 80.3193H504.767L497.931 268.479C497.817 271.099 497.76 273.719 497.76 276.34V303C494.911 302.886 492.348 302.829 490.069 302.829C487.905 302.829 485.341 302.886 482.379 303ZM566.666 303L570.426 234.47L573.844 131.76L574.527 96.2129C574.641 86.7565 574.698 77.9268 574.698 69.7236C577.66 69.8376 580.224 69.8945 582.389 69.8945C584.667 69.8945 587.231 69.8376 590.079 69.7236L587.003 131.589L582.901 258.908L582.047 303C579.199 302.886 576.635 302.829 574.356 302.829C572.078 302.829 569.514 302.886 566.666 303ZM734.522 174.484C755.372 174.598 770.696 174.655 780.494 174.655L810.401 174.484L807.496 228.488L805.616 294.455C787.729 298.785 771.607 301.861 757.252 303.684C743.01 305.62 730.877 306.589 720.851 306.589C703.419 306.589 686.728 304.139 670.777 299.24C654.941 294.341 641.383 286.993 630.104 277.194C618.824 267.282 610.507 254.978 605.152 240.28C599.798 225.583 597.12 210.031 597.12 193.625C597.12 174.826 600.595 156.996 607.545 140.134C614.609 123.158 624.293 109.087 636.598 97.9219C648.902 86.7565 663.087 78.6673 679.151 73.6543C695.216 68.6413 712.59 66.1348 731.275 66.1348C741.757 66.1348 752.41 66.7614 763.233 68.0146C774.171 69.2679 786.988 71.5465 801.686 74.8506C801.913 80.6611 802.369 85.902 803.053 90.5732C786.76 85.2184 772.861 81.5726 761.354 79.6357C749.846 77.6989 739.08 76.7305 729.054 76.7305C712.306 76.7305 696.298 79.3509 681.031 84.5918C665.878 89.8327 653.004 97.694 642.408 108.176C631.926 118.658 623.894 131.589 618.312 146.97C612.843 162.351 610.108 178.187 610.108 194.479C610.108 209.86 612.501 224.159 617.286 237.375C622.185 250.591 629.477 261.415 639.161 269.846C648.845 278.277 660.637 284.771 674.537 289.328C688.437 293.771 703.704 295.993 720.338 295.993C726.035 295.993 732.244 295.708 738.966 295.139C745.688 294.455 752.41 293.601 759.132 292.575C765.854 291.436 771.323 290.354 775.538 289.328C779.868 288.189 785.507 286.537 792.457 284.372L796.559 185.08H776.222C770.753 185.08 765.284 185.137 759.815 185.251L734.01 186.276C734.352 182.744 734.522 179.44 734.522 176.364V174.484ZM941.686 66.1348C957.978 66.1348 973.359 68.5843 987.828 73.4834C1002.41 78.3825 1015.11 86.3577 1025.94 97.4092C1036.76 108.461 1044.45 121.164 1049.01 135.52C1053.68 149.761 1056.02 164.914 1056.02 180.979C1056.02 198.638 1053.4 215.614 1048.16 231.906C1042.91 248.199 1035 261.87 1024.4 272.922C1013.8 283.973 1000.53 292.347 984.581 298.044C968.744 303.741 952.11 306.589 934.679 306.589C917.931 306.589 901.866 303.968 886.485 298.728C871.104 293.373 858.23 285.568 847.862 275.314C837.494 264.947 829.861 252.528 824.962 238.059C820.177 223.475 817.784 208.208 817.784 192.258C817.784 174.37 820.746 157.053 826.671 140.305C832.595 123.443 841.14 109.486 852.306 98.4346C863.585 87.3831 877.029 79.237 892.638 73.9961C908.246 68.7552 924.596 66.1348 941.686 66.1348ZM941.173 76.7305C925.45 76.7305 910.639 79.18 896.739 84.0791C882.84 88.8643 870.763 96.7256 860.509 107.663C850.255 118.487 842.735 131.304 837.95 146.115C833.165 160.812 830.772 176.193 830.772 192.258C830.772 207.411 833.279 221.937 838.292 235.837C843.305 249.737 850.654 261.244 860.338 270.358C870.022 279.473 881.358 286.024 894.347 290.012C907.449 293.999 921.235 295.993 935.704 295.993C950.971 295.993 965.383 293.771 978.941 289.328C992.613 284.885 1004.41 277.479 1014.32 267.111C1024.34 256.743 1031.64 244.325 1036.19 229.855C1040.86 215.272 1043.2 199.891 1043.2 183.713C1043.2 168.332 1041.03 153.692 1036.71 139.792C1032.49 125.892 1025.65 114.1 1016.2 104.416C1006.74 94.6178 995.519 87.554 982.53 83.2246C969.542 78.8952 955.756 76.7305 941.173 76.7305Z" fill="white"/>
<path d="M2.1315 67.2072C-5.42424 67.7045 9.39772 96.2935 11.1777 99.767C22.1253 119.821 36.8592 137.487 49.1401 156.72C66.6221 183.254 79.332 212.501 93.9704 240.626C98.6393 250.686 104.353 260.224 112.222 268.116C114.93 270.559 116.907 266.908 115.608 264.213C108.875 254.211 103.572 243.442 97.8862 232.841C80.1551 195.544 61.4247 158.798 37.1763 125.234C25.4589 108.605 14.5913 90.9707 10.0403 70.9011C9.3893 67.9528 10.3692 67 6.62211 67C5.55616 67 4.1085 67.077 2.1315 67.2072ZM13.7824 75.4925C15.8382 82.0618 17.8458 88.4997 21.5167 94.3385C32.5564 113.815 45.8772 131.8 58.1874 150.456C81.2769 184.937 94.0542 225.339 117.391 259.561C119.548 262.103 120.69 260.897 121.797 258.36C121.915 255.323 119.43 252.451 118.409 249.611C100.973 214.917 85.6413 178.773 65.3439 145.582C50.8157 121.427 29.4171 100.474 22.3586 72.5223C21.3787 69.1894 23.1556 67.6597 16.1403 67.159C15.8558 67.1387 15.5892 67.1287 15.341 67.1287C10.5872 67.1284 12.3076 70.7781 13.7824 75.4925ZM239.303 67.5816C235.301 67.6226 231.337 68.8255 228.246 71.3045C220.018 77.449 215.683 86.9451 211.571 96.0793C201.219 118.177 191.748 140.675 181.652 162.89C169.933 187.708 160.844 214.576 142.852 235.715C141.298 238.136 137.117 241.296 138.74 244.4C139.542 245.386 140.561 244.402 141.187 243.786C146.555 238.509 152.113 233.396 157.136 227.804C176.279 205.314 185.038 176.22 198.392 150.253C216.277 113.508 228.201 83.3804 273.475 77.8359C277.242 77.075 278.329 73.8689 279.629 70.9532C280.599 68.7799 279.625 67.5363 277.205 67.536C270.18 67.5333 263.158 67.5072 256.134 67.5072C250.524 67.5072 244.912 67.5237 239.303 67.5816ZM25.7385 75.5097C28.7906 84.509 33.1691 92.8667 38.515 100.675C54.5937 123.68 71.4493 146.258 83.9037 171.54C98.2805 197.757 108.985 225.903 124.292 251.601C125.852 253.728 127.542 252.658 127.989 250.504C128.057 248.81 127.947 246.964 127.328 245.415C105.611 196.897 84.8859 147.127 53.0095 104.22C50.0121 99.8823 46.8441 95.6617 43.8719 91.3071C38.8091 84.6251 36.3739 76.6414 33.2101 69.035C32.3197 67.7164 30.732 67.7704 28.9134 67.8252C28.1553 67.8474 27.3571 67.8704 26.5531 67.7934C26.4418 67.7827 26.3359 67.7777 26.2361 67.7777C23.0428 67.7773 25.3625 73.043 25.7385 75.5097ZM51.7917 74.8025C87.3414 121.864 111.304 175.779 134.921 229.486C138.715 233.497 138.777 220.297 137.41 218.691C125.127 189.195 111.174 160.228 98.1612 131.025C92.0171 117.48 85.8134 103.952 79.347 90.5685C76.1732 83.2368 70.6373 78.3485 65.0861 72.3886C63.7421 70.9459 56.6082 67.8685 52.4794 67.8681C49.4292 67.8673 48.0194 69.5461 51.7917 74.8025ZM38.1398 75.1132C52.0193 100.856 72.2926 122.511 85.3487 148.832C101.305 179.642 116.262 211.197 130.126 242.987C130.37 243.865 132.066 244.079 132.443 243.27C132.924 241.114 133.879 238.821 133.521 236.775C131.07 226.024 125.362 216.243 121.081 206.137C103.198 167.102 85.5568 127.601 60.3327 92.6525C55.7017 85.707 50.4932 79.1346 46.9703 71.4757C45.131 67.4754 43.9954 68.6078 39.5733 68.0543C39.2638 68.0156 38.9816 67.9972 38.7253 67.9972C34.6684 67.9964 37.0348 72.6369 38.1398 75.1132ZM205.561 81.2221C203.268 84.9852 201.56 89.1127 199.701 93.1283C193.36 106.805 187.564 120.725 181.541 134.543C170.263 159.863 159.581 185.446 147.91 210.59C145.042 216.404 142.601 222.61 141.443 228.974C141.574 229.123 141.706 229.272 141.837 229.421C157.681 214.399 163.951 191.699 173.876 172.597C187.826 142.982 200.033 112.431 214.894 83.2352C217.53 78.5794 220.274 73.9402 224.515 70.4479C224.898 70.133 224.842 69.2836 224.99 68.6822C218.033 68.845 209.254 75.3676 205.561 81.2221ZM271.423 81.6998C233.537 86.8348 218.564 113.476 204.214 145.486C188.497 176.915 177.645 211.907 153.373 238.108C147.711 244.687 139.875 248.684 133.545 254.424C133.151 254.89 132.983 255.937 133.233 256.479C134.451 258.373 136.765 255.476 138.289 255.2C167.917 241.59 183.511 211.048 196.312 182.728C212.765 149.531 228.428 111.454 263.658 94.3259C265.958 93.0222 268.626 92.1472 270.517 90.4118C272.059 88.9978 272.757 86.6214 273.693 84.6082C274.466 83.1414 275.391 81.4929 273.148 81.4929C272.705 81.4929 272.138 81.5569 271.423 81.6998ZM217.515 147.185C205.942 170.259 194.889 193.599 183.125 216.578C179.061 224.515 173.453 231.389 167.379 237.847C159.237 246.024 150.436 253.726 140.058 258.913C137.182 260.931 129.675 262.813 128.388 265.486C129.096 265.966 129.783 266.587 130.704 266.301C146.96 264.41 161.804 257.004 173.078 245.173C201.934 217.997 208.146 175.858 233.469 146.193C240.733 137.053 252.77 132.104 256.916 120.705C260.156 113.944 263.318 107.145 266.61 100.41C267.36 98.874 267.035 97.93 265.353 96.9079C244.626 107.27 228.838 127.324 217.515 147.185ZM27.9851 134.045C27.1498 134.882 30.1316 142.178 30.7699 143.14C40.8526 161.421 49.3734 180.523 58.7367 199.178C78.2871 235.375 96.2163 296.543 148.458 286.154C163.743 283.282 181.592 273.501 191.701 261.706C194.991 256.589 196.904 250.435 199.151 244.75C199.054 244.633 198.956 244.515 198.858 244.398C198.348 244.608 197.72 244.692 197.347 245.046C178.935 264.568 155.072 283.2 126.665 280.626C105.783 277.871 97.4257 253.827 88.1763 237.744C79.7329 220.586 71.5292 203.294 62.3315 186.523C54.7567 172.362 46.3947 158.693 36.6363 145.929C35.1167 144.412 30.5492 133.996 28.2463 133.995C28.1557 133.995 28.0685 134.011 27.9851 134.045ZM208.643 195.726C195.992 223.001 180.291 251.918 151.435 264.494C142.55 268.784 133.209 271.333 123.498 272.639C121.968 272.845 121.621 273.31 121.983 274.543C151.445 282.828 179.411 261.023 196.704 239.057C209.223 222.091 217.916 202.698 226.856 183.702C231.262 175.013 235.793 166.379 239.867 157.521C242.552 151.796 245.103 146.007 247.815 140.295C248.369 139.127 247.766 138.803 247.067 138.27C227.622 152.026 218.876 175.111 208.643 195.726ZM183.673 273.761C174.636 280.304 165.017 285.714 154.171 288.576C134.147 295.463 111.726 290.272 96.4071 275.686C100.871 285.598 111.773 290.506 121.035 295.076C131.804 299.915 144.776 299.264 156.01 296.559C164.35 293.64 172.853 290.469 179.937 285.038C183.033 282.708 184.066 278.909 185.759 275.597C186.172 274.789 186.591 273.939 185.743 273.443C185.593 273.354 185.384 273.315 185.153 273.315C184.647 273.315 184.032 273.5 183.673 273.761ZM166.557 296.816C151.623 303.464 133.974 305.382 118.568 299.042C114.827 297.467 111.267 295.46 107.637 293.624C106.727 293.163 105.889 292.406 104.273 293.358C116.154 304.865 132.588 310.47 148.988 309.325C160.461 307.965 171.524 305.879 176.715 294.219C176.923 293.888 176.777 292.943 176.51 292.792C176.309 292.748 176.1 292.728 175.884 292.728C173.139 292.727 169.239 296.05 166.557 296.816ZM111.353 305.63C121.764 319.65 143.673 322.968 158.713 314.691C159.625 314.31 160.123 313.814 159.633 312.614C158.841 312.681 158.003 312.728 157.171 312.827C146.226 314.618 134.879 314.586 124.4 310.507C120.516 308.987 116.729 307.22 112.876 305.62C112.733 305.56 112.573 305.54 112.405 305.54C112.067 305.54 111.695 305.622 111.353 305.63Z" fill="url(#paint0_radial_12_218)"/>
<defs>
<radialGradient id="paint0_radial_12_218" cx="0" cy="0" r="1" gradientUnits="userSpaceOnUse" gradientTransform="translate(140 301.016) rotate(-59.9802) scale(279.833 280.016)">
<stop stop-color="#265C5D"/>
<stop offset="0.263" stop-color="#265D37"/>
<stop offset="0.578674" stop-color="#75C956"/>
<stop offset="0.796444" stop-color="#75C956"/>
<stop offset="0.883755" stop-color="#75C956"/>
<stop offset="1" stop-color="#75C956"/>
</radialGradient>
</defs>
</svg>
